/* XPM */
static const char * logitek_22x22_xpm[] = {
"22 22 36 1",
" 	c None",
".	c #FF0000",
"+	c #050505",
"@	c #FF4444",
"#	c #FF4545",
"$	c #FFFFFF",
"%	c #582020",
"&	c #FF5555",
"*	c #EAEAEA",
"=	c #FFCACA",
"-	c #8D7676",
";	c #250A0A",
">	c #FF0303",
",	c #FF0A0A",
"'	c #C30606",
")	c #EC0101",
"!	c #DB2500",
"~	c #5E1302",
"{	c #F40000",
"]	c #FC0300",
"^	c #350503",
"/	c #F60000",
"(	c #FF3030",
"_	c #FF1C1C",
":	c #7E1A1A",
"<	c #FB1616",
"[	c #FFFDFD",
"}	c #FFBDBD",
"|	c #FFB1B1",
"1	c #FFECEC",
"2	c #FFE0E0",
"3	c #FF7575",
"4	c #FFACAC",
"5	c #FF1919",
"6	c #FF5858",
"7	c #FF2E2E",
"                      ",
"                      ",
"    .                 ",
"    .        +        ",
"   ..          +      ",
"   @#  +              ",
"   $$            %&&  ",
"   $$           &&&&  ",
"   $*           &&&&& ",
"   =-;           &&&& ",
"  >,')           &&   ",
"  .!~{                ",
"  .]^/                ",
"  (_:<                ",
" [}&&&                ",
" $|&&&                ",
" $|&&&                ",
" 123 4                ",
" 56  75               ",
" . .. .               ",
".  ..  .              ",
".    ...              "};
