/* XPM */
static const char * logitek_32x32_xpm[] = {
"32 32 36 1",
" 	c None",
".	c #FF0000",
"+	c #050505",
"@	c #FFAAAA",
"#	c #FFFFFF",
"$	c #FF5555",
"%	c #ECECEC",
"&	c #656565",
"*	c #B8B8B8",
"=	c #121212",
"-	c #FF4242",
";	c #AE3636",
">	c #780808",
",	c #C20101",
"'	c #E80000",
")	c #FA0500",
"!	c #BD4200",
"~	c #650B02",
"{	c #D40000",
"]	c #FC0300",
"^	c #D72900",
"/	c #160804",
"(	c #B00101",
"_	c #F60000",
":	c #1E0404",
"<	c #C40101",
"[	c #3D0303",
"}	c #DC0000",
"|	c #FFF1F1",
"1	c #FFC3C3",
"2	c #FFB6B6",
"3	c #FFC6C6",
"4	c #FF4545",
"5	c #FFA5A5",
"6	c #FF6565",
"7	c #FF2A2A",
"                                ",
"                                ",
"                                ",
"     ..                         ",
"     ..      + ++  +            ",
"     ..     ++                  ",
"    ...               ++        ",
"    ...   +            +        ",
"    @ @                 +       ",
"    # #                  +$$$   ",
"    ### ++              $$$$$   ",
"    ###                $$$$$$$  ",
"    ##%&                $$$$$$  ",
"    # *=                $$$$$$$ ",
"    - ;>                 $$$$   ",
"   .. ,'.                $$     ",
"   .)!~{.                       ",
"   .]^/(.                       ",
"   .._:<.                       ",
"   .. [}.                       ",
"  |1$$$$$                       ",
"  ##$$$$$                       ",
"  # $$$$$                       ",
"  # $$$$$                       ",
"  # $$$$$                       ",
"  ##2  23                       ",
"  45    67                      ",
" ....  ....                     ",
" .  .... ..                     ",
".    ..   .                     ",
".   ....  .                     ",
"...     ...                     "};
