/* XPM */
static const char * logitek_16x16_xpm[] = {
"16 16 17 1",
" 	c None",
".	c #FF0000",
"+	c #050505",
"@	c #FFD5D5",
"#	c #FFFFFF",
"$	c #FF5555",
"%	c #8E8E8E",
"&	c #FF2424",
"*	c #B20F0F",
"=	c #E21D00",
"-	c #7E0502",
";	c #7F0202",
">	c #FFE9E9",
",	c #FF6D6D",
"'	c #FF8E8E",
")	c #FF3F3F",
"!	c #FF2828",
"                ",
"                ",
"                ",
"  ..       +    ",
"  @@            ",
"  ##        $$$ ",
"  #%        $$$ ",
"  &*         $  ",
"  =-            ",
"  .;            ",
" >$$$           ",
" #$$$           ",
" #,,'           ",
" )  !           ",
"  ..            ",
". .. .          "};
