/* XPM */
static const char * logitek_48x48_xpm[] = {
"48 48 32 1",
" 	c None",
".	c #FF0000",
"+	c #050505",
"@	c #FF8080",
"#	c #FFFFFF",
"$	c #FF5555",
"%	c #F3F3F3",
"&	c #6B6B6B",
"*	c #0B0B0B",
"=	c #EA7575",
"-	c #5E0F0F",
";	c #C50101",
">	c #E80000",
",	c #940101",
"'	c #F30C00",
")	c #A45B00",
"!	c #501203",
"~	c #EB1500",
"{	c #2B0F03",
"]	c #0A0404",
"^	c #170604",
"/	c #FE0000",
"(	c #070404",
"_	c #3F0303",
":	c #6A0202",
"<	c #160404",
"[	c #AB0101",
"}	c #FFDBDB",
"|	c #FF8B8B",
"1	c #FFAAAA",
"2	c #FF7474",
"3	c #FF2424",
"                                                ",
"                                                ",
"                                                ",
"                                                ",
"        ..                                      ",
"        ..              +                       ",
"        ..            ++++  ++                  ",
"        ..         ++       +++                 ",
"        ..        ++             +              ",
"       ...                      +++             ",
"      .....     +                 ++            ",
"      .. ..    ++                  +            ",
"      @@ @@   ++                     +          ",
"      ## ##                         ++   $$     ",
"      ## ##                          + $$$$     ",
"      #####  +                       $$$$$$$    ",
"      ##### ++                     $$$$$$$$$    ",
"      #####                        $$$$$$$$$$   ",
"      ####%                         $$$$$$$$$   ",
"      ## #&+                        $$$$$$$$$$  ",
"      ## #*+                         $$$$$$$$$  ",
"      $@ =+-                         $$$$$$$    ",
"     ... ;>>.                         $$$$      ",
"     ... ,>>.                         $$        ",
"     ..')!>>.                                   ",
"     ..~){]..                                   ",
"     .. ~^+..                                   ",
"     .../(_..                                   ",
"     ... +:..                                   ",
"     ... <[..                                   ",
"    }|$$$$$$$$                                  ",
"   ###$$$$$$$$                                  ",
"   ## $$$$$$$$                                  ",
"   ## $$$$$$$$                                  ",
"   ## $$$$$$$$                                  ",
"   ## $$$$$$$$                                  ",
"   ## $$$$$$$$                                  ",
"   ## $$$$$$$$                                  ",
"   ####    ###                                  ",
"   $|}      123                                 ",
"  ...       ....                                ",
"  .. ...  ... ..                                ",
"  ..  ......  ..                                ",
"  .     ..    ..                                ",
"..      ..     ..                               ",
"..    ......   ..                               ",
"..   ...  ...  ..                               ",
".....       .....                               "};
