/* XPM */
static const char * lpcodecpool_16x16_xpm[] = {
"16 16 89 1",
" 	c None",
".	c #5D5F5B",
"+	c #5A5C58",
"@	c #555753",
"#	c #B8B9B7",
"$	c #F9F9F9",
"%	c #FBFBFB",
"&	c #FAFAF9",
"*	c #F9F9F8",
"=	c #F7F8F6",
"-	c #F6F6F5",
";	c #F4F5F3",
">	c #F3F3F1",
",	c #F4F4F3",
"'	c #F2F2F1",
")	c #BABDB6",
"!	c #EBECE9",
"~	c #3465A4",
"{	c #3869A7",
"]	c #EDEDEC",
"^	c #FFFFFF",
"/	c #E5E7E3",
"(	c #6F9DCD",
"_	c #666864",
":	c #EAEBE8",
"<	c #E4E6E2",
"[	c #729FCF",
"}	c #D5D5D3",
"|	c #C2C3C0",
"1	c #EBECE8",
"2	c #E4E5E1",
"3	c #E8E9E5",
"4	c #E2E4DF",
"5	c #ECE7ED",
"6	c #967B9C",
"7	c #643F6E",
"8	c #E0E2DD",
"9	c #8B7090",
"0	c #7B527F",
"a	c #A0749D",
"b	c #8A6F8F",
"c	c #E4E5E0",
"d	c #5A5B58",
"e	c #F4F4F4",
"f	c #D5D6D5",
"g	c #5E3968",
"h	c #BFA4BC",
"i	c #EBEAE9",
"j	c #C7B1C5",
"k	c #5F3A69",
"l	c #D6D7D6",
"m	c #5F615D",
"n	c #BAB0BA",
"o	c #D8D1D7",
"p	c #ECEBEA",
"q	c #D1C6D0",
"r	c #C5BDC5",
"s	c #636561",
"t	c #60625E",
"u	c #646662",
"v	c #797B77",
"w	c #A3A2A2",
"x	c #604665",
"y	c #EAE9E8",
"z	c #634867",
"A	c #979596",
"B	c #C7C7C5",
"C	c #828480",
"D	c #656762",
"E	c #9C9D9A",
"F	c #BEBEBB",
"G	c #7E807C",
"H	c #EAEAE8",
"I	c #575955",
"J	c #787A76",
"K	c #BCBDBA",
"L	c #A3A4A1",
"M	c #B5B6B2",
"N	c #B0B1AE",
"O	c #737470",
"P	c #5D5F5A",
"Q	c #D6D6D4",
"R	c #626360",
"S	c #70726D",
"T	c #ACADAA",
"U	c #B8B9B5",
"V	c #676964",
"W	c #BDBDBB",
"X	c #6B6D69",
"  .+@@@@@+.     ",
" .#$%%%%%$#.    ",
" +$&*=-;>,$+    ",
" @%')))))!%@~{  ",
" @%]^^^^^/%@(~_ ",
" @%:)))))<%@[~}|",
" @%1^^^^^2%@(~_ ",
" @%3)))))4%@~{  ",
" @%3567658%@    ",
" @%390a0bc%@    ",
" defghijkled    ",
"  m.nopqrst     ",
" uv|wxyzABCD    ",
" EFG@@H+IJKL    ",
"MNO  PQR  STU   ",
"     VWX        "};
